<svg width="1440" height="248" viewBox="0 0 1440 248" fill="none" xmlns="http://www.w3.org/2000/svg">
<g clip-path="url(#clip0_55_1069)">
<path opacity="0.5" d="M836.833 57.5598C837.188 57.3932 837.557 57.2267 837.954 57.074C839.963 50.246 840.632 27 864.865 27C889.097 27 887.074 47.512 887.074 47.512C887.074 47.512 892.459 44.0979 900.536 50.246C905.921 42.724 930.153 32.468 943.615 54.0069C946.882 54.1874 952.704 55.2699 957.365 59.8774C965.141 67.5659 959.593 81 948.741 81H842.259C829.412 81 825.161 63.0278 836.833 57.5598Z" fill="white"/>
<path opacity="0.5" d="M-28.7229 39.2413C-28.5004 39.1365 -28.2695 39.0316 -28.0214 38.9355C-26.7638 34.6363 -26.3446 20 -11.1764 20C3.99181 20 2.72566 32.9149 2.72566 32.9149C2.72566 32.9149 6.09636 30.7654 11.1524 34.6363C14.5231 29.9003 29.6913 23.4428 38.1181 37.0044C40.1628 37.118 43.8072 37.7995 46.7245 40.7006C51.5924 45.5415 48.119 54 41.3263 54H-25.3265C-33.3683 54 -36.0289 42.6841 -28.7229 39.2413Z" fill="white"/>
<path fill-rule="evenodd" clip-rule="evenodd" d="M1023 84.2272C1023 84.1312 1023 84.049 1023 83.953C1022.77 71.0277 1012.35 60.4188 999.469 59.9802C994.998 59.8294 990.789 60.8848 987.145 62.8586C980.397 53.2639 969.246 47 956.646 47C942.472 47 930.148 54.9224 923.841 66.5868C921.233 65.3258 918.321 64.613 915.23 64.613C908.674 64.613 902.864 67.8204 899.276 72.7547C896.668 70.781 893.369 69.6707 889.795 69.8489C882.425 70.219 876.422 76.2088 876.022 83.5967C876.022 83.6652 876.008 83.7337 876.008 83.816C875.787 89.3809 880.272 94 885.834 94H1013.3C1018.65 93.9863 1023.04 89.6139 1023 84.2272Z" fill="white"/>
<path fill-rule="evenodd" clip-rule="evenodd" d="M112 74.97C112 74.9108 112 74.86 112 74.8008C111.855 66.8256 105.404 60.2797 97.4335 60.009C94.6654 59.916 92.0597 60.5672 89.8043 61.7851C85.6266 55.865 78.7236 52 70.9235 52C62.1495 52 54.5203 56.8883 50.616 64.0854C49.0013 63.3074 47.1987 62.8676 45.285 62.8676C41.2269 62.8676 37.6302 64.8466 35.4089 67.8912C33.7942 66.6734 31.7524 65.9883 29.5396 66.0983C24.9775 66.3266 21.2611 70.0225 21.0134 74.5809C21.0134 74.6232 21.0048 74.6655 21.0048 74.7162C20.8681 78.1499 23.6447 81 27.0877 81H105.994C109.309 80.9915 112.025 78.2937 112 74.97Z" fill="white"/>
<path opacity="0.5" d="M1220.37 51.7569C1220.65 51.6303 1220.94 51.5037 1221.25 51.3771C1222.83 46.0603 1223.36 28 1242.41 28C1261.46 28 1259.88 43.9504 1259.88 43.9504C1259.88 43.9504 1264.11 41.292 1270.47 46.0744C1274.7 40.223 1293.74 32.2619 1304.33 49C1306.91 49.1407 1311.48 49.9846 1315.15 53.5713C1321.25 59.5492 1316.9 70 1308.37 70H1224.65C1214.54 69.9859 1211.19 56.0188 1220.37 51.7569Z" fill="white"/>
<path fill-rule="evenodd" clip-rule="evenodd" d="M1268 68.6224C1268 68.5661 1268 68.5239 1268 68.4676C1267.87 61.3166 1262.13 55.4325 1255.03 55.1932C1252.57 55.1088 1250.25 55.7 1248.23 56.7839C1244.51 51.477 1238.37 48 1231.43 48C1223.62 48 1216.83 52.392 1213.34 58.8391C1211.91 58.1353 1210.3 57.7411 1208.6 57.7411C1204.99 57.7411 1201.79 59.5148 1199.81 62.2457C1198.38 61.1477 1196.56 60.5424 1194.59 60.6409C1190.53 60.8521 1187.23 64.1601 1187 68.2564C1187 68.2987 1187 68.3409 1187 68.3691C1186.88 71.4519 1189.36 73.9998 1192.42 73.9998H1262.67C1265.6 74.0279 1268.03 71.6067 1268 68.6224Z" fill="white"/>
<path fill-rule="evenodd" clip-rule="evenodd" d="M556 83.6989C556 83.6103 556 83.5439 556 83.4554C556.199 72.4537 564.988 63.4222 575.853 63.0459C579.629 62.9131 583.162 63.8207 586.254 65.503C591.951 57.3348 601.358 52 611.98 52C623.926 52 634.327 58.7515 639.649 68.6685C641.835 67.5838 644.309 66.9861 646.914 66.9861C652.457 66.9861 657.337 69.7089 660.385 73.9147C662.593 72.2324 665.375 71.3027 668.379 71.4355C674.606 71.7454 679.663 76.8588 679.994 83.1455C679.994 83.2119 679.994 83.2562 679.994 83.3226C680.171 88.0597 676.395 91.9999 671.713 91.9999H564.193C559.666 92.022 555.956 88.281 556 83.6989Z" fill="white"/>
<path d="M163.021 76.4117C166.63 74.0865 170.875 70.0931 169.265 65.391C168.387 62.8296 167.169 60.6373 167.007 57.8692C166.871 55.5243 167.222 53.1767 168.04 50.9748C171.281 42.2793 180.943 38.1604 189.616 40.7809C197.677 43.202 203.228 52.5914 199.884 60.7111C197.958 65.4058 197.094 69.0966 201.39 72.7209C202.556 73.7174 205.391 75.2011 205.376 76.9653C205.376 79.2684 200.836 76.4708 200.334 76.0721C200.91 77.076 206.616 83.0256 202.984 83.4537C199.641 83.8449 196.688 79.1798 194.68 77.172C191.307 73.806 191.897 81.254 191.883 82.7894C191.883 85.2179 190.141 90.1709 187.062 86.9378C184.523 84.2878 185.483 80.073 183.711 77.1351C181.777 73.9094 178.544 80.3535 177.754 81.564C176.854 82.8853 172.351 89.2556 170.565 85.8601C169.088 83.1068 171.436 78.7812 172.572 76.2641C172.159 77.1646 169.206 78.4785 168.343 78.9436C166.475 79.9708 164.359 80.4589 162.231 80.3535C157.698 80.0213 161.175 77.6149 163.021 76.4265V76.4117Z" fill="#0D80D8"/>
<path d="M228.111 62.8296C228.147 64.5325 227.82 66.2235 227.151 67.79C226.59 69.1154 225.647 70.2436 224.442 71.0305C223.537 71.617 222.515 72.0009 221.448 72.1558C220.38 72.3107 219.292 72.233 218.257 71.9281C217.222 71.6231 216.266 71.0981 215.453 70.3889C214.64 69.6798 213.99 68.8033 213.547 67.8195C212.872 66.3031 212.529 64.6594 212.543 62.9994V61.6043C212.51 59.9097 212.843 58.228 213.518 56.6734C214.07 55.3341 215.015 54.1937 216.229 53.403C217.443 52.6122 218.868 52.2083 220.316 52.2444C221.764 52.2156 223.189 52.6052 224.42 53.3664C225.636 54.1566 226.587 55.293 227.151 56.6291C227.818 58.1961 228.146 59.8868 228.111 61.5895V62.8296ZM225.572 61.5747C225.572 59.2864 225.107 57.5222 224.184 56.2969C223.741 55.6946 223.156 55.211 222.481 54.889C221.807 54.5671 221.063 54.4168 220.316 54.4515C219.58 54.4233 218.847 54.5769 218.184 54.8988C217.521 55.2206 216.948 55.7008 216.515 56.2969C215.503 57.8027 215.001 59.5929 215.082 61.405V62.8296C214.977 64.6816 215.469 66.5187 216.485 68.0705C216.938 68.655 217.516 69.1299 218.178 69.4598C218.839 69.7898 219.567 69.9663 220.306 69.9762C221.045 69.9861 221.777 69.8292 222.447 69.5172C223.117 69.2051 223.708 68.746 224.177 68.1739C225.077 66.978 225.542 65.2557 225.572 63.0068V61.5747Z" fill="#0F2535"/>
<path d="M236.12 70.1374C236.958 70.1517 237.774 69.8693 238.423 69.3401C238.734 69.1031 238.992 68.8031 239.179 68.4596C239.366 68.1161 239.478 67.737 239.508 67.3471H241.841C241.788 68.1981 241.491 69.0157 240.985 69.7018C240.445 70.4571 239.727 71.0681 238.896 71.4808C238.036 71.9195 237.085 72.1472 236.12 72.1451C235.245 72.1852 234.371 72.0298 233.563 71.6902C232.754 71.3505 232.032 70.8352 231.448 70.1816C230.224 68.6726 229.606 66.7624 229.713 64.8226V64.4093C229.689 63.122 229.954 61.8457 230.488 60.6742C230.959 59.6276 231.73 58.744 232.703 58.1349C233.727 57.5147 234.908 57.202 236.106 57.2344C237.586 57.1913 239.027 57.72 240.128 58.7107C240.655 59.1839 241.079 59.7603 241.373 60.4041C241.668 61.0478 241.827 61.7453 241.841 62.4531H239.508C239.468 61.5821 239.089 60.7612 238.453 60.1649C237.82 59.5667 236.976 59.2429 236.106 59.2643C235.549 59.2369 234.993 59.3456 234.488 59.581C233.983 59.8163 233.542 60.1713 233.205 60.6151C232.444 61.7693 232.081 63.1405 232.171 64.52V64.985C232.088 66.3373 232.448 67.6798 233.197 68.8087C233.541 69.2493 233.987 69.6002 234.496 69.8315C235.005 70.0629 235.562 70.1678 236.12 70.1374V70.1374Z" fill="#0F2535"/>
<path d="M246.743 54.0161V57.5002H249.429V59.3973H246.743V68.3585C246.709 68.8193 246.834 69.2778 247.097 69.6577C247.257 69.815 247.45 69.935 247.662 70.009C247.873 70.0831 248.099 70.1093 248.322 70.0858C248.717 70.0714 249.11 70.0195 249.496 69.9308V71.909C248.881 72.0816 248.245 72.171 247.606 72.1748C247.143 72.2075 246.679 72.1348 246.248 71.9622C245.817 71.7896 245.431 71.5216 245.119 71.1783C244.512 70.3626 244.217 69.3577 244.285 68.3437V59.3973H241.664V57.5002H244.285V54.0161H246.743Z" fill="#0F2535"/>
<path d="M250.182 64.5569C250.162 63.2422 250.448 61.9409 251.016 60.7554C251.52 59.683 252.322 58.7784 253.327 58.1497C254.344 57.5299 255.517 57.2124 256.708 57.2344C257.601 57.2013 258.49 57.3662 259.312 57.7171C260.134 58.068 260.868 58.5964 261.461 59.2643C262.724 60.773 263.373 62.7023 263.277 64.6676V64.8374C263.296 66.1392 263.021 67.4286 262.473 68.6094C261.972 69.6797 261.172 70.5821 260.17 71.2077C259.137 71.8376 257.946 72.1603 256.737 72.1378C255.846 72.1687 254.959 72.0021 254.139 71.6499C253.32 71.2977 252.589 70.7686 251.998 70.1004C250.734 68.6007 250.086 66.678 250.182 64.7193V64.5569ZM252.655 64.8448C252.587 66.214 252.977 67.567 253.762 68.6906C254.114 69.1443 254.565 69.5115 255.081 69.7641C255.596 70.0167 256.163 70.148 256.737 70.148C257.311 70.148 257.878 70.0167 258.393 69.7641C258.909 69.5115 259.36 69.1443 259.712 68.6906C260.518 67.4766 260.906 66.0334 260.819 64.579C260.883 63.2092 260.485 61.8576 259.69 60.7406C259.353 60.2752 258.908 59.898 258.394 59.641C257.88 59.384 257.312 59.2548 256.737 59.2643C256.162 59.2523 255.593 59.3804 255.078 59.6376C254.564 59.8948 254.12 60.2734 253.784 60.7406C252.968 61.9478 252.571 63.3899 252.655 64.8448V64.8448Z" fill="#0F2535"/>
<path d="M277.309 64.8447C277.41 66.7229 276.891 68.5822 275.833 70.1373C275.369 70.7847 274.753 71.3071 274.038 71.6575C273.323 72.0079 272.532 72.1754 271.736 72.1451C270.97 72.1842 270.205 72.0558 269.494 71.769C268.782 71.4821 268.142 71.0437 267.617 70.4842V77.4081H265.159V57.4779H267.374L267.499 59.0723C268.009 58.4515 268.659 57.9609 269.396 57.6413C270.132 57.3217 270.935 57.1822 271.736 57.2343C272.526 57.2056 273.312 57.3678 274.026 57.707C274.741 58.0462 275.363 58.5525 275.84 59.183C276.844 60.4896 277.317 62.2981 277.317 64.6233L277.309 64.8447ZM274.851 64.5716C274.926 63.2111 274.562 61.8626 273.81 60.7258C273.494 60.2776 273.071 59.9145 272.581 59.6686C272.09 59.4226 271.547 59.3015 270.998 59.3159C270.308 59.2926 269.626 59.4672 269.032 59.8191C268.438 60.1709 267.958 60.6853 267.647 61.3015V68.1738C267.962 68.7847 268.445 69.2936 269.038 69.6412C269.631 69.9888 270.311 70.1608 270.998 70.1373C271.545 70.1539 272.088 70.0345 272.577 69.7897C273.067 69.5449 273.488 69.1824 273.803 68.7348C274.586 67.4938 274.953 66.0355 274.851 64.5716Z" fill="#0F2535"/>
<path d="M288.116 70.4547C287.586 71.0358 286.932 71.4896 286.202 71.7823C285.472 72.075 284.686 72.199 283.901 72.145C283.255 72.1895 282.607 72.0931 282.001 71.8624C281.396 71.6317 280.848 71.2723 280.395 70.809C279.526 69.6915 279.095 68.2948 279.184 66.882V57.5H281.642V66.786C281.642 69.0005 282.528 70.056 284.3 70.056C286.071 70.056 287.43 69.3548 288.05 67.9597V57.5H290.508V71.8793H288.168L288.116 70.4547Z" fill="#0F2535"/>
<path d="M301.417 68.0633C301.432 67.764 301.372 67.4659 301.243 67.1954C301.114 66.925 300.921 66.6906 300.679 66.5131C299.874 66.0347 298.984 65.7141 298.059 65.5683C297.039 65.3719 296.047 65.0495 295.106 64.6087C294.461 64.31 293.903 63.8529 293.482 63.28C293.125 62.7345 292.943 62.0936 292.958 61.442C292.956 60.8635 293.089 60.2924 293.345 59.7737C293.601 59.255 293.974 58.8028 294.434 58.4525C295.523 57.6091 296.875 57.1777 298.251 57.2345C299.682 57.1694 301.091 57.6169 302.222 58.4967C302.706 58.8802 303.095 59.3701 303.358 59.9282C303.622 60.4864 303.754 61.0979 303.743 61.7151H301.262C301.261 61.3788 301.184 61.0471 301.035 60.7453C300.887 60.4434 300.672 60.1793 300.406 59.9731C299.8 59.4701 299.03 59.2074 298.243 59.2349C297.498 59.1917 296.76 59.3996 296.147 59.8254C295.909 60.0008 295.717 60.2316 295.588 60.4979C295.46 60.7642 295.398 61.0579 295.409 61.3534C295.398 61.6222 295.462 61.8888 295.592 62.1242C295.722 62.3597 295.914 62.5552 296.147 62.6895C296.943 63.1098 297.8 63.4037 298.686 63.5605C299.718 63.7665 300.722 64.0962 301.676 64.5423C302.346 64.8494 302.928 65.3218 303.366 65.9152C303.748 66.4971 303.942 67.1828 303.92 67.8787C303.933 68.4798 303.8 69.0751 303.531 69.6128C303.262 70.1505 302.866 70.6145 302.377 70.9642C301.192 71.8033 299.76 72.2193 298.31 72.1453C297.259 72.1646 296.216 71.9555 295.254 71.5326C294.425 71.1651 293.713 70.578 293.194 69.8348C292.709 69.1378 292.451 68.3075 292.456 67.458H294.922C294.928 67.8386 295.021 68.2127 295.192 68.5527C295.363 68.8926 295.609 69.1896 295.911 69.4215C296.615 69.9369 297.474 70.1972 298.347 70.1596C299.124 70.1922 299.893 69.9973 300.561 69.5986C300.827 69.441 301.046 69.216 301.196 68.9463C301.346 68.6766 301.423 68.372 301.417 68.0633V68.0633Z" fill="#0F2535"/>
<path d="M311.811 71.8794V52.5249H317.273C318.834 52.4964 320.374 52.881 321.739 53.6395C323.027 54.3842 324.069 55.4903 324.736 56.821C325.463 58.2909 325.83 59.9128 325.806 61.5526V62.7853C325.842 64.446 325.48 66.0912 324.75 67.5833C324.082 68.9157 323.03 70.0183 321.731 70.75C320.33 71.5123 318.757 71.9012 317.162 71.8794H311.811ZM314.357 54.6139V69.7904H317.044C317.897 69.8391 318.75 69.7005 319.543 69.3842C320.336 69.0679 321.05 68.5817 321.635 67.9598C322.738 66.7344 323.286 64.9899 323.282 62.7262V61.5969C323.404 59.7441 322.853 57.9094 321.731 56.4298C321.185 55.8112 320.507 55.3235 319.747 55.0028C318.986 54.682 318.164 54.5365 317.339 54.577L314.357 54.6139Z" fill="#0F2535"/>
<path d="M334.044 72.1452C333.16 72.1772 332.279 72.0228 331.459 71.6922C330.639 71.3615 329.897 70.862 329.283 70.226C328.653 69.5272 328.168 68.7111 327.853 67.8246C327.539 66.938 327.403 65.9982 327.452 65.0589V64.6677C327.428 63.3471 327.709 62.0388 328.272 60.844C328.772 59.7706 329.562 58.8581 330.552 58.2088C331.498 57.5798 332.606 57.2411 333.741 57.2344C334.56 57.1894 335.378 57.3323 336.133 57.6522C336.888 57.972 337.559 58.4604 338.096 59.0798C339.13 60.315 339.647 62.0792 339.647 64.3724V65.4058H329.903C329.883 66.6652 330.324 67.8885 331.143 68.8456C331.522 69.2701 331.99 69.6069 332.512 69.8325C333.035 70.0581 333.6 70.1672 334.169 70.1522C334.942 70.1778 335.707 69.9942 336.384 69.6207C336.995 69.2554 337.531 68.7769 337.964 68.2108L339.44 69.3845C338.863 70.2789 338.06 71.0052 337.113 71.4899C336.165 71.9747 335.107 72.2007 334.044 72.1452V72.1452ZM333.741 59.2496C333.271 59.2402 332.804 59.3322 332.372 59.5195C331.94 59.7067 331.554 59.9847 331.239 60.3347C330.508 61.1887 330.071 62.2547 329.991 63.3759H337.196V63.1913C337.195 62.1381 336.838 61.116 336.185 60.2904C335.88 59.9463 335.503 59.6744 335.08 59.4944C334.658 59.3144 334.2 59.2307 333.741 59.2496V59.2496Z" fill="#0F2535"/>
<path d="M353.451 64.8447C353.551 66.7229 353.032 68.5822 351.974 70.1372C351.514 70.7804 350.901 71.3001 350.192 71.6503C349.483 72.0005 348.698 72.1704 347.907 72.145C347.141 72.1841 346.376 72.0558 345.664 71.7689C344.953 71.4821 344.313 71.0437 343.788 70.4842V77.4081H341.33V57.4779H343.545L343.67 59.0723C344.171 58.4568 344.809 57.9677 345.533 57.6446C346.258 57.3214 347.048 57.1733 347.841 57.2121C348.63 57.1828 349.415 57.3447 350.128 57.684C350.841 58.0233 351.462 58.53 351.937 59.1609C352.949 60.4674 353.451 62.2759 353.451 64.6011V64.8447ZM350.993 64.5715C351.077 63.2143 350.722 61.8661 349.981 60.7257C349.662 60.2733 349.235 59.9076 348.739 59.6614C348.242 59.4153 347.693 59.2965 347.139 59.3159C346.45 59.2926 345.767 59.4672 345.174 59.819C344.58 60.1709 344.099 60.6853 343.788 61.3015V68.1737C344.104 68.7888 344.59 69.3005 345.188 69.6484C345.786 69.9963 346.47 70.1659 347.162 70.1372C347.71 70.1544 348.254 70.0353 348.745 69.7905C349.235 69.5458 349.658 69.183 349.974 68.7347C350.747 67.4903 351.103 66.0322 350.993 64.5715Z" fill="#0F2535"/>
<path d="M358.049 71.8793H355.584V51.4619H358.049V71.8793Z" fill="#0F2535"/>
<path d="M360.131 64.557C360.11 63.2423 360.396 61.9409 360.965 60.7555C361.467 59.6841 362.266 58.7796 363.268 58.1498C364.285 57.5307 365.458 57.2133 366.648 57.2345C367.539 57.2031 368.426 57.3688 369.245 57.7197C370.064 58.0706 370.796 58.598 371.387 59.2644C372.659 60.7698 373.315 62.6994 373.225 64.6677V64.8375C373.244 66.1393 372.969 67.4287 372.421 68.6095C371.92 69.6798 371.12 70.5822 370.118 71.2078C369.085 71.8377 367.895 72.1604 366.685 72.1379C365.794 72.1688 364.907 72.0022 364.088 71.65C363.268 71.2978 362.537 70.7686 361.946 70.1005C360.683 68.6008 360.034 66.6781 360.131 64.7194V64.557ZM362.603 64.8449C362.536 66.2141 362.925 67.5671 363.711 68.6907C364.047 69.1565 364.492 69.5341 365.006 69.7911C365.52 70.0482 366.089 70.1771 366.663 70.167C367.239 70.1816 367.809 70.0546 368.324 69.7972C368.839 69.5397 369.282 69.1598 369.616 68.6907C370.422 67.4767 370.81 66.0335 370.723 64.5791C370.787 63.2093 370.389 61.8577 369.594 60.7407C369.257 60.2753 368.812 59.8981 368.298 59.6411C367.784 59.3841 367.216 59.2549 366.641 59.2644C366.066 59.2524 365.497 59.3805 364.982 59.6377C364.468 59.8949 364.024 60.2735 363.688 60.7407C362.888 61.9533 362.506 63.395 362.603 64.8449V64.8449Z" fill="#0F2535"/>
<path d="M379.618 68.2772L382.962 57.5001H385.597L379.817 74.1013C378.917 76.4929 377.499 77.6887 375.551 77.6887L375.086 77.6444L374.163 77.4746V75.4816L374.827 75.5333C375.516 75.5637 376.198 75.3779 376.776 75.0018C377.338 74.5143 377.739 73.8685 377.927 73.149L378.474 71.6727L373.307 57.4558H375.986L379.618 68.2772Z" fill="#0F2535"/>
<path d="M277.511 186.965L300.351 121.082V186.086L277.511 186.965Z" fill="#0D80D8"/>
<path d="M302.985 185.208C312.473 154.99 306.499 118.886 302.546 104.831C342.603 123.454 355.838 160.026 357.448 175.984C336.717 171.416 312.648 180.376 302.985 185.208Z" fill="#0D80D8"/>
<path d="M302.986 101.318C302.986 100.59 302.396 100 301.669 100V100C300.941 100 300.351 100.59 300.351 101.318V191.357H302.986V101.318Z" fill="#07121A"/>
<path d="M279.579 206.671L274 190.918C304.218 190.918 347.202 184.476 363.6 181.255L351.451 203.633C348.652 208.789 343.256 212 337.39 212H287.12C283.731 212 280.71 209.865 279.579 206.671Z" fill="#0F2535"/>
<path d="M316.819 158.67C318.592 157.315 320.619 155.079 319.567 152.754C318.993 151.488 318.259 150.426 318.048 149.021C317.87 147.83 317.946 146.616 318.271 145.454C319.561 140.865 324.403 138.313 329.038 139.246C333.345 140.106 336.664 144.64 335.294 148.94C334.505 151.426 334.224 153.35 336.626 154.999C337.279 155.454 338.822 156.079 338.895 156.98C339 158.155 336.509 156.939 336.23 156.759C336.575 157.244 339.817 160.015 337.946 160.403C336.223 160.758 334.473 158.515 333.336 157.584C331.426 156.023 332.074 159.796 332.136 160.581C332.247 161.82 331.566 164.429 329.816 162.923C328.373 161.688 328.68 159.492 327.624 158.076C326.47 156.519 325.081 159.959 324.725 160.613C324.316 161.33 322.263 164.791 321.178 163.141C320.284 161.804 321.308 159.487 321.785 158.15C321.611 158.629 320.134 159.437 319.705 159.714C318.78 160.326 317.701 160.673 316.588 160.719C314.213 160.76 315.913 159.37 316.82 158.677L316.819 158.67Z" fill="white"/>
<path d="M3.2934 203.843L-2.2934 201.157C-20.9118 192.209 -42.5882 192.209 -61.2066 201.157L-64 202.5V247.5H65V202.5L62.2066 203.843C43.5882 212.791 21.9118 212.791 3.2934 203.843Z" fill="#145586"/>
<path d="M132.293 203.843L126.707 201.157C108.088 192.209 86.4118 192.209 67.7934 201.157L65 202.5V247.5H194V202.5L191.207 203.843C172.588 212.791 150.912 212.791 132.293 203.843Z" fill="#145586"/>
<path d="M261.293 203.843L255.707 201.157C237.088 192.209 215.412 192.209 196.793 201.157L194 202.5V247.5H323V202.5L320.207 203.843C301.588 212.791 279.912 212.791 261.293 203.843Z" fill="#145586"/>
<path d="M390.293 203.843L384.707 201.157C366.088 192.209 344.412 192.209 325.793 201.157L323 202.5V247.5H452V202.5L449.207 203.843C430.588 212.791 408.912 212.791 390.293 203.843Z" fill="#145586"/>
<path d="M519.293 203.843L513.707 201.157C495.088 192.209 473.412 192.209 454.793 201.157L452 202.5V247.5H581V202.5L578.207 203.843C559.588 212.791 537.912 212.791 519.293 203.843Z" fill="#145586"/>
<path d="M648.293 203.843L642.707 201.157C624.088 192.209 602.412 192.209 583.793 201.157L581 202.5V247.5H710V202.5L707.207 203.843C688.588 212.791 666.912 212.791 648.293 203.843Z" fill="#145586"/>
<path d="M777.293 203.843L771.707 201.157C753.088 192.209 731.412 192.209 712.793 201.157L710 202.5V247.5H839V202.5L836.207 203.843C817.588 212.791 795.912 212.791 777.293 203.843Z" fill="#145586"/>
<path d="M906.293 203.843L900.707 201.157C882.088 192.209 860.412 192.209 841.793 201.157L839 202.5V247.5H968V202.5L965.207 203.843C946.588 212.791 924.912 212.791 906.293 203.843Z" fill="#145586"/>
<path d="M1035.29 203.843L1029.71 201.157C1011.09 192.209 989.412 192.209 970.793 201.157L968 202.5V247.5H1097V202.5L1094.21 203.843C1075.59 212.791 1053.91 212.791 1035.29 203.843Z" fill="#145586"/>
<path d="M1164.29 203.843L1158.71 201.157C1140.09 192.209 1118.41 192.209 1099.79 201.157L1097 202.5V247.5H1226V202.5L1223.21 203.843C1204.59 212.791 1182.91 212.791 1164.29 203.843Z" fill="#145586"/>
<path d="M1293.29 203.843L1287.71 201.157C1269.09 192.209 1247.41 192.209 1228.79 201.157L1226 202.5V247.5H1355V202.5L1352.21 203.843C1333.59 212.791 1311.91 212.791 1293.29 203.843Z" fill="#145586"/>
<path d="M1422.29 203.843L1416.71 201.157C1398.09 192.209 1376.41 192.209 1357.79 201.157L1355 202.5V247.5H1484V202.5L1481.21 203.843C1462.59 212.791 1440.91 212.791 1422.29 203.843Z" fill="#145586"/>
</g>
<defs>
<clipPath id="clip0_55_1069">
<rect width="1440" height="248" fill="white"/>
</clipPath>
</defs>
</svg>
