<svg width="90" height="112" viewBox="0 0 90 112" fill="none" xmlns="http://www.w3.org/2000/svg">
<path d="M3.51138 86.9646L26.3506 21.0823V86.0862L3.51138 86.9646Z" fill="#0D80D8"/>
<path d="M28.9855 85.2078C38.4726 54.9897 32.4992 18.8862 28.5463 4.8313C68.6028 23.454 81.8378 60.0261 83.4482 75.9843C62.7173 71.4164 38.6482 80.3764 28.9855 85.2078Z" fill="#0D80D8"/>
<path d="M28.9863 1.31765C28.9863 0.58993 28.3964 0 27.6687 0V0C26.941 0 26.351 0.58993 26.351 1.31765V91.3568H28.9863V1.31765Z" fill="#07121A"/>
<path d="M5.57887 106.671L-0.000366211 90.9176C30.2177 90.9176 73.2022 84.4758 89.5996 81.2549L77.4512 103.633C74.6523 108.789 69.2562 112 63.3896 112H13.1199C9.73122 112 6.71016 109.865 5.57887 106.671Z" fill="#0F2535"/>
<path d="M42.819 58.6699C44.592 57.3151 46.6194 55.0793 45.567 52.7544C44.9927 51.488 44.2585 50.4258 44.0476 49.0206C43.8697 47.8301 43.9457 46.6156 44.2708 45.4537C45.5609 40.8648 50.4032 38.3125 55.0383 39.246C59.3453 40.1063 62.6639 44.6399 61.2937 48.9398C60.5051 51.4256 60.224 53.3495 62.626 54.9993C63.2787 55.4535 64.8221 56.0788 64.895 56.9799C65.0002 58.1553 62.509 56.9389 62.2295 56.7588C62.5751 57.2444 65.8173 60.0152 63.9461 60.4028C62.2232 60.7582 60.473 58.5147 59.336 57.5835C57.4261 56.0227 58.0736 59.7965 58.136 60.5808C58.2469 61.8203 57.5661 64.4293 55.816 62.9226C54.3731 61.6883 54.6802 59.4924 53.6238 58.0755C52.4696 56.5192 51.0807 59.9588 50.7247 60.6134C50.3162 61.3297 48.2629 64.7907 47.1779 63.1409C46.2836 61.8044 47.3081 59.4874 47.785 58.1497C47.6109 58.6286 46.1338 59.4367 45.7054 59.7143C44.7801 60.3255 43.7008 60.6732 42.5878 60.7185C40.2131 60.7601 41.9132 59.37 42.8197 58.6775L42.819 58.6699Z" fill="white"/>
</svg>
