<svg width="1440" height="130" viewBox="0 0 1440 130" fill="none" xmlns="http://www.w3.org/2000/svg">
<g clip-path="url(#clip0_50_514)">
<path opacity="0.2" d="M216.809 105L217.419 104.186C217.128 104.389 216.925 104.68 216.809 105Z" fill="#1C75BC"/>
<path opacity="0.5" d="M836.833 57.5598C837.188 57.3932 837.557 57.2267 837.954 57.074C839.963 50.246 840.632 27 864.865 27C889.097 27 887.074 47.512 887.074 47.512C887.074 47.512 892.459 44.0979 900.536 50.246C905.921 42.724 930.153 32.468 943.615 54.0069C946.882 54.1874 952.704 55.2699 957.365 59.8774C965.141 67.5659 959.593 81 948.741 81H842.259C829.412 81 825.161 63.0278 836.833 57.5598Z" fill="white"/>
<path opacity="0.5" d="M-28.7229 39.2413C-28.5004 39.1365 -28.2695 39.0316 -28.0214 38.9355C-26.7638 34.6363 -26.3446 20 -11.1764 20C3.99181 20 2.72566 32.9149 2.72566 32.9149C2.72566 32.9149 6.09636 30.7654 11.1524 34.6363C14.5231 29.9003 29.6913 23.4428 38.1181 37.0044C40.1628 37.118 43.8072 37.7995 46.7245 40.7006C51.5924 45.5415 48.119 54 41.3263 54H-25.3265C-33.3683 54 -36.0289 42.6841 -28.7229 39.2413Z" fill="white"/>
<path fill-rule="evenodd" clip-rule="evenodd" d="M1023 84.2272C1023 84.1312 1023 84.049 1023 83.953C1022.77 71.0277 1012.35 60.4188 999.469 59.9802C994.998 59.8294 990.789 60.8848 987.145 62.8586C980.397 53.2639 969.246 47 956.646 47C942.472 47 930.148 54.9224 923.841 66.5868C921.233 65.3258 918.321 64.613 915.23 64.613C908.674 64.613 902.864 67.8204 899.276 72.7547C896.668 70.781 893.369 69.6707 889.795 69.8489C882.425 70.219 876.422 76.2088 876.022 83.5967C876.022 83.6652 876.008 83.7337 876.008 83.816C875.787 89.3809 880.272 94 885.834 94H1013.3C1018.65 93.9863 1023.04 89.6139 1023 84.2272Z" fill="white"/>
<path fill-rule="evenodd" clip-rule="evenodd" d="M112 74.97C112 74.9108 112 74.86 112 74.8008C111.855 66.8256 105.404 60.2797 97.4335 60.009C94.6654 59.916 92.0597 60.5672 89.8043 61.7851C85.6266 55.865 78.7236 52 70.9235 52C62.1495 52 54.5203 56.8883 50.616 64.0854C49.0013 63.3074 47.1987 62.8676 45.285 62.8676C41.2269 62.8676 37.6302 64.8466 35.4089 67.8912C33.7942 66.6734 31.7524 65.9883 29.5396 66.0983C24.9775 66.3266 21.2611 70.0225 21.0134 74.5809C21.0134 74.6232 21.0048 74.6655 21.0048 74.7162C20.8681 78.1499 23.6447 81 27.0877 81H105.994C109.309 80.9915 112.025 78.2937 112 74.97Z" fill="white"/>
<path opacity="0.5" d="M1220.37 51.7569C1220.65 51.6303 1220.94 51.5037 1221.25 51.3771C1222.83 46.0603 1223.36 28 1242.41 28C1261.46 28 1259.88 43.9504 1259.88 43.9504C1259.88 43.9504 1264.11 41.292 1270.47 46.0744C1274.7 40.223 1293.74 32.2619 1304.33 49C1306.91 49.1407 1311.48 49.9846 1315.15 53.5713C1321.25 59.5492 1316.9 70 1308.37 70H1224.65C1214.54 69.9859 1211.19 56.0188 1220.37 51.7569Z" fill="white"/>
<path fill-rule="evenodd" clip-rule="evenodd" d="M1268 68.6224C1268 68.5661 1268 68.5239 1268 68.4676C1267.87 61.3166 1262.13 55.4325 1255.03 55.1932C1252.57 55.1088 1250.25 55.7 1248.23 56.7839C1244.51 51.477 1238.37 48 1231.43 48C1223.62 48 1216.83 52.392 1213.34 58.8391C1211.91 58.1353 1210.3 57.7411 1208.6 57.7411C1204.99 57.7411 1201.79 59.5148 1199.81 62.2457C1198.38 61.1477 1196.56 60.5424 1194.59 60.6409C1190.53 60.8521 1187.23 64.1601 1187 68.2564C1187 68.2987 1187 68.3409 1187 68.3691C1186.88 71.4519 1189.36 73.9998 1192.42 73.9998H1262.67C1265.6 74.0279 1268.03 71.6067 1268 68.6224Z" fill="white"/>
<path fill-rule="evenodd" clip-rule="evenodd" d="M556 83.6989C556 83.6103 556 83.5439 556 83.4554C556.199 72.4537 564.988 63.4222 575.853 63.0459C579.629 62.9131 583.162 63.8207 586.254 65.503C591.951 57.3348 601.358 52 611.98 52C623.926 52 634.327 58.7515 639.649 68.6685C641.835 67.5838 644.309 66.9861 646.914 66.9861C652.457 66.9861 657.337 69.7089 660.385 73.9147C662.593 72.2324 665.375 71.3027 668.379 71.4355C674.606 71.7454 679.663 76.8588 679.994 83.1455C679.994 83.2119 679.994 83.2562 679.994 83.3226C680.171 88.0597 676.395 91.9999 671.713 91.9999H564.193C559.666 92.022 555.956 88.281 556 83.6989Z" fill="white"/>
</g>
<defs>
<clipPath id="clip0_50_514">
<rect width="1440" height="130" fill="white"/>
</clipPath>
</defs>
</svg>
