<svg width="226" height="48" viewBox="0 0 226 48" fill="none" xmlns="http://www.w3.org/2000/svg">
<path d="M3.02061 36.4117C6.6302 34.0865 10.8746 30.0931 9.26542 25.391C8.38701 22.8296 7.16905 20.6373 7.00666 17.8692C6.87051 15.5243 7.2224 13.1767 8.04008 10.9748C11.2806 2.27933 20.9431 -1.83959 29.6164 0.780867C37.6771 3.20202 43.228 12.5914 39.8842 20.7111C37.9576 25.4058 37.0939 29.0966 41.39 32.7209C42.5563 33.7174 45.3908 35.2011 45.3761 36.9653C45.3761 39.2684 40.8364 36.4708 40.3344 36.0721C40.9102 37.076 46.6162 43.0256 42.9844 43.4537C39.6406 43.8449 36.688 39.1798 34.6802 37.172C31.3068 33.806 31.8973 41.254 31.8826 42.7894C31.8826 45.2179 30.1405 50.1709 27.0624 46.9378C24.5231 44.2878 25.4827 40.073 23.7112 37.1351C21.7772 33.9094 18.5441 40.3535 17.7542 41.564C16.8537 42.8853 12.3509 49.2556 10.5646 45.8601C9.08826 43.1068 11.4356 38.7812 12.5724 36.2641C12.159 37.1646 9.20637 38.4785 8.34272 38.9436C6.4754 39.9708 4.35938 40.4589 2.23078 40.3535C-2.3015 40.0213 1.17522 37.6149 3.02061 36.4265V36.4117Z" fill="#0D80D8"/>
<path d="M68.111 22.8296C68.1471 24.5325 67.82 26.2235 67.1514 27.79C66.5904 29.1154 65.6473 30.2436 64.4423 31.0305C63.5369 31.617 62.5154 32.0009 61.4478 32.1558C60.3803 32.3107 59.2918 32.233 58.257 31.9281C57.2223 31.6231 56.2657 31.0981 55.4527 30.3889C54.6398 29.6798 53.9897 28.8033 53.5471 27.8195C52.8715 26.3031 52.5292 24.6594 52.5432 22.9994V21.6043C52.5105 19.9097 52.8428 18.228 53.5176 16.6734C54.0697 15.3341 55.0151 14.1937 56.2289 13.403C57.4427 12.6122 58.8678 12.2083 60.316 12.2444C61.7635 12.2156 63.1886 12.6052 64.4202 13.3664C65.6361 14.1566 66.5874 15.293 67.1514 16.6291C67.8185 18.1961 68.1455 19.8868 68.111 21.5895V22.8296ZM65.5717 21.5747C65.5717 19.2864 65.1067 17.5222 64.184 16.2969C63.7411 15.6946 63.1562 15.211 62.4815 14.889C61.8067 14.5671 61.0628 14.4168 60.316 14.4515C59.5796 14.4233 58.8475 14.5769 58.1845 14.8988C57.5215 15.2206 56.9479 15.7008 56.5145 16.2969C55.5033 17.8027 55.0013 19.5929 55.0825 21.405V22.8296C54.977 24.6816 55.4686 26.5187 56.485 28.0705C56.9376 28.655 57.5162 29.1299 58.1777 29.4598C58.8393 29.7898 59.5667 29.9663 60.3059 29.9762C61.0451 29.9861 61.777 29.8292 62.4471 29.5172C63.1173 29.2051 63.7084 28.746 64.1766 28.1739C65.0771 26.978 65.5422 25.2557 65.5717 23.0068V21.5747Z" fill="#0F2535"/>
<path d="M76.1203 30.1374C76.958 30.1517 77.7738 29.8693 78.4233 29.3401C78.7344 29.1031 78.9919 28.8031 79.1789 28.4596C79.3659 28.1161 79.4782 27.737 79.5084 27.3471H81.841C81.7882 28.1981 81.4909 29.0157 80.9847 29.7018C80.4448 30.4571 79.7274 31.0681 78.8958 31.4808C78.0365 31.9195 77.0851 32.1472 76.1203 32.1451C75.2445 32.1852 74.3709 32.0298 73.5627 31.6902C72.7545 31.3505 72.032 30.8352 71.4478 30.1816C70.2243 28.6726 69.606 26.7624 69.7131 24.8226V24.4093C69.6893 23.122 69.9542 21.8457 70.4881 20.6742C70.9593 19.6276 71.7298 18.744 72.7026 18.1349C73.7271 17.5147 74.9083 17.202 76.1055 17.2344C77.5864 17.1913 79.027 17.72 80.1285 18.7107C80.6551 19.1839 81.0788 19.7603 81.3734 20.4041C81.668 21.0478 81.8272 21.7453 81.841 22.4531H79.5084C79.4677 21.5821 79.089 20.7612 78.4529 20.1649C77.8199 19.5667 76.9762 19.2429 76.1055 19.2643C75.5486 19.2369 74.9934 19.3456 74.488 19.581C73.9825 19.8163 73.542 20.1713 73.2046 20.6151C72.4436 21.7693 72.0807 23.1405 72.1711 24.52V24.985C72.0878 26.3373 72.448 27.6798 73.1972 28.8087C73.5413 29.2493 73.9868 29.6002 74.4958 29.8315C75.0047 30.0629 75.562 30.1678 76.1203 30.1374V30.1374Z" fill="#0F2535"/>
<path d="M86.7426 14.016V17.5001H89.4295V19.3972H86.7426V28.3584C86.7088 28.8192 86.8339 29.2777 87.0969 29.6575C87.2569 29.8149 87.4497 29.9349 87.6616 30.0089C87.8734 30.0829 88.0991 30.1091 88.3222 30.0857C88.7175 30.0713 89.1105 30.0194 89.4959 29.9307V31.9089C88.8807 32.0815 88.2452 32.1709 87.6062 32.1747C87.1432 32.2074 86.6789 32.1347 86.248 31.9621C85.8171 31.7895 85.431 31.5214 85.1186 31.1781C84.5125 30.3625 84.2167 29.3576 84.2845 28.3436V19.3972H81.6641V17.5001H84.2845V14.016H86.7426Z" fill="#0F2535"/>
<path d="M90.1823 24.5569C90.1622 23.2422 90.4477 21.9409 91.0164 20.7554C91.5204 19.683 92.3225 18.7784 93.3268 18.1497C94.344 17.5299 95.5166 17.2124 96.7076 17.2344C97.6006 17.2013 98.4899 17.3662 99.3117 17.7171C100.134 18.068 100.868 18.5964 101.461 19.2643C102.724 20.773 103.373 22.7023 103.277 24.6676V24.8374C103.296 26.1392 103.021 27.4286 102.473 28.6094C101.972 29.6797 101.172 30.5821 100.17 31.2077C99.137 31.8376 97.9464 32.1603 96.7371 32.1378C95.8458 32.1687 94.9587 32.0021 94.1394 31.6499C93.3201 31.2977 92.5889 30.7686 91.9981 30.1004C90.7345 28.6007 90.0857 26.678 90.1823 24.7193V24.5569ZM92.6551 24.8448C92.5873 26.214 92.9768 27.567 93.7623 28.6906C94.1142 29.1443 94.5652 29.5115 95.0808 29.7641C95.5964 30.0167 96.1629 30.148 96.7371 30.148C97.3113 30.148 97.8778 30.0167 98.3934 29.7641C98.909 29.5115 99.36 29.1443 99.7119 28.6906C100.518 27.4766 100.906 26.0334 100.819 24.579C100.883 23.2092 100.485 21.8576 99.6897 20.7406C99.3526 20.2752 98.9082 19.898 98.3942 19.641C97.8801 19.384 97.3117 19.2548 96.7371 19.2643C96.1621 19.2523 95.5928 19.3804 95.0784 19.6376C94.5639 19.8948 94.1199 20.2734 93.7845 20.7406C92.9681 21.9478 92.5712 23.3899 92.6551 24.8448V24.8448Z" fill="#0F2535"/>
<path d="M117.309 24.8448C117.41 26.7231 116.891 28.5824 115.833 30.1374C115.369 30.7848 114.753 31.3072 114.038 31.6576C113.323 32.008 112.532 32.1755 111.736 32.1452C110.97 32.1843 110.205 32.0559 109.494 31.7691C108.782 31.4823 108.142 31.0438 107.617 30.4843V37.4083H105.159V17.478H107.374L107.499 19.0724C108.009 18.4516 108.659 17.961 109.396 17.6414C110.132 17.3218 110.935 17.1823 111.736 17.2344C112.526 17.2058 113.312 17.3679 114.026 17.7071C114.741 18.0463 115.363 18.5526 115.84 19.1832C116.844 20.4897 117.317 22.2982 117.317 24.6234L117.309 24.8448ZM114.851 24.5717C114.926 23.2112 114.562 21.8627 113.81 20.7259C113.494 20.2777 113.071 19.9146 112.581 19.6687C112.09 19.4228 111.547 19.3016 110.998 19.316C110.308 19.2927 109.626 19.4673 109.032 19.8192C108.438 20.171 107.958 20.6854 107.647 21.3017V28.1739C107.962 28.7849 108.445 29.2937 109.038 29.6413C109.631 29.9889 110.311 30.1609 110.998 30.1374C111.545 30.154 112.088 30.0346 112.577 29.7898C113.067 29.545 113.488 29.1826 113.803 28.7349C114.586 27.4939 114.953 26.0356 114.851 24.5717Z" fill="#0F2535"/>
<path d="M128.116 30.4548C127.586 31.0359 126.932 31.4897 126.202 31.7825C125.472 32.0752 124.686 32.1992 123.901 32.1452C123.255 32.1896 122.607 32.0932 122.001 31.8625C121.396 31.6318 120.848 31.2724 120.395 30.8091C119.526 29.6916 119.095 28.2949 119.184 26.8821V17.5001H121.642V26.7861C121.642 29.0006 122.528 30.0562 124.3 30.0562C126.071 30.0562 127.43 29.3549 128.05 27.9598V17.5001H130.508V31.8794H128.168L128.116 30.4548Z" fill="#0F2535"/>
<path d="M141.417 28.0631C141.432 27.7639 141.372 27.4658 141.243 27.1953C141.114 26.9249 140.921 26.6905 140.679 26.513C139.874 26.0346 138.984 25.714 138.059 25.5682C137.039 25.3718 136.047 25.0494 135.106 24.6086C134.461 24.3099 133.903 23.8528 133.482 23.2799C133.125 22.7344 132.943 22.0935 132.958 21.4419C132.956 20.8634 133.089 20.2923 133.345 19.7736C133.601 19.2549 133.974 18.8026 134.434 18.4523C135.523 17.609 136.875 17.1776 138.251 17.2344C139.682 17.1692 141.091 17.6168 142.222 18.4966C142.706 18.8801 143.095 19.3699 143.358 19.9281C143.622 20.4863 143.754 21.0977 143.743 21.715H141.262C141.261 21.3787 141.184 21.047 141.035 20.7451C140.887 20.4433 140.672 20.1792 140.406 19.9729C139.8 19.47 139.03 19.2073 138.243 19.2348C137.498 19.1916 136.76 19.3995 136.147 19.8253C135.909 20.0006 135.717 20.2315 135.588 20.4978C135.46 20.7641 135.398 21.0577 135.409 21.3533C135.398 21.6221 135.462 21.8887 135.592 22.1241C135.722 22.3596 135.914 22.555 136.147 22.6894C136.943 23.1097 137.8 23.4036 138.686 23.5604C139.718 23.7664 140.722 24.096 141.676 24.5421C142.346 24.8493 142.928 25.3217 143.366 25.9151C143.748 26.497 143.942 27.1827 143.92 27.8786C143.933 28.4797 143.8 29.0749 143.531 29.6127C143.262 30.1504 142.866 30.6143 142.377 30.9641C141.192 31.8032 139.76 32.2192 138.31 32.1451C137.259 32.1645 136.216 31.9554 135.254 31.5325C134.425 31.165 133.713 30.5779 133.194 29.8347C132.709 29.1377 132.451 28.3074 132.456 27.4578H134.922C134.928 27.8384 135.021 28.2126 135.192 28.5526C135.363 28.8925 135.609 29.1895 135.911 29.4213C136.615 29.9368 137.474 30.1971 138.347 30.1595C139.124 30.1921 139.893 29.9971 140.561 29.5985C140.827 29.4409 141.046 29.2159 141.196 28.9462C141.346 28.6765 141.423 28.3719 141.417 28.0631V28.0631Z" fill="#0F2535"/>
<path d="M151.811 31.8794V12.5249H157.273C158.834 12.4964 160.374 12.881 161.739 13.6395C163.027 14.3842 164.069 15.4903 164.736 16.821C165.463 18.2909 165.83 19.9128 165.806 21.5526V22.7853C165.842 24.446 165.48 26.0912 164.75 27.5833C164.082 28.9157 163.03 30.0183 161.731 30.75C160.33 31.5123 158.757 31.9012 157.162 31.8794H151.811ZM154.357 14.6139V29.7904H157.044C157.897 29.8391 158.75 29.7005 159.543 29.3842C160.336 29.0679 161.05 28.5817 161.635 27.9598C162.738 26.7344 163.286 24.9899 163.282 22.7262V21.5969C163.404 19.7441 162.853 17.9094 161.731 16.4298C161.185 15.8112 160.507 15.3235 159.747 15.0028C158.986 14.682 158.164 14.5365 157.339 14.577L154.357 14.6139Z" fill="#0F2535"/>
<path d="M174.044 32.1452C173.16 32.1772 172.279 32.0228 171.459 31.6922C170.639 31.3615 169.897 30.862 169.283 30.226C168.653 29.5272 168.168 28.7111 167.853 27.8246C167.539 26.938 167.403 25.9982 167.452 25.0589V24.6677C167.428 23.3471 167.709 22.0388 168.272 20.844C168.772 19.7706 169.562 18.8581 170.552 18.2088C171.498 17.5798 172.606 17.2411 173.741 17.2344C174.56 17.1894 175.378 17.3323 176.133 17.6522C176.888 17.972 177.559 18.4604 178.096 19.0798C179.13 20.315 179.647 22.0792 179.647 24.3724V25.4058H169.903C169.883 26.6652 170.324 27.8885 171.143 28.8456C171.522 29.2701 171.99 29.6069 172.512 29.8325C173.035 30.0581 173.6 30.1672 174.169 30.1522C174.942 30.1778 175.707 29.9942 176.384 29.6207C176.995 29.2554 177.531 28.7769 177.964 28.2108L179.44 29.3845C178.863 30.2789 178.06 31.0052 177.113 31.4899C176.165 31.9747 175.107 32.2007 174.044 32.1452V32.1452ZM173.741 19.2496C173.271 19.2402 172.804 19.3322 172.372 19.5195C171.94 19.7067 171.554 19.9847 171.239 20.3347C170.508 21.1887 170.071 22.2547 169.991 23.3759H177.196V23.1913C177.195 22.1381 176.838 21.116 176.185 20.2904C175.88 19.9463 175.503 19.6744 175.08 19.4944C174.658 19.3144 174.2 19.2307 173.741 19.2496V19.2496Z" fill="#0F2535"/>
<path d="M193.451 24.8448C193.551 26.723 193.032 28.5823 191.974 30.1374C191.514 30.7806 190.901 31.3002 190.192 31.6505C189.483 32.0007 188.698 32.1706 187.907 32.1452C187.141 32.1842 186.376 32.0559 185.664 31.7691C184.953 31.4822 184.313 31.0438 183.788 30.4843V37.4082H181.33V17.478H183.545L183.67 19.0724C184.171 18.4569 184.809 17.9678 185.533 17.6447C186.258 17.3215 187.048 17.1734 187.841 17.2122C188.63 17.1829 189.415 17.3448 190.128 17.6841C190.841 18.0234 191.462 18.5301 191.937 19.161C192.949 20.4675 193.451 22.276 193.451 24.6012V24.8448ZM190.993 24.5717C191.077 23.2145 190.722 21.8662 189.981 20.7259C189.662 20.2735 189.235 19.9077 188.739 19.6616C188.242 19.4154 187.693 19.2967 187.139 19.316C186.45 19.2927 185.767 19.4673 185.174 19.8191C184.58 20.171 184.099 20.6854 183.788 21.3016V28.1739C184.104 28.7889 184.59 29.3006 185.188 29.6485C185.786 29.9964 186.47 30.1661 187.162 30.1374C187.71 30.1546 188.254 30.0354 188.745 29.7907C189.235 29.5459 189.658 29.1831 189.974 28.7349C190.747 27.4904 191.103 26.0323 190.993 24.5717Z" fill="#0F2535"/>
<path d="M198.049 31.8795H195.584V11.462H198.049V31.8795Z" fill="#0F2535"/>
<path d="M200.131 24.5569C200.11 23.2422 200.396 21.9408 200.965 20.7554C201.467 19.684 202.266 18.7795 203.268 18.1497C204.285 17.5306 205.458 17.2132 206.648 17.2343C207.539 17.203 208.426 17.3686 209.245 17.7195C210.064 18.0704 210.796 18.5979 211.387 19.2643C212.659 20.7697 213.315 22.6993 213.225 24.6676V24.8374C213.244 26.1392 212.969 27.4286 212.421 28.6093C211.92 29.6796 211.12 30.5821 210.118 31.2077C209.085 31.8376 207.895 32.1602 206.685 32.1377C205.794 32.1687 204.907 32.0021 204.088 31.6499C203.268 31.2977 202.537 30.7685 201.946 30.1004C200.683 28.6007 200.034 26.678 200.131 24.7193V24.5569ZM202.603 24.8447C202.536 26.214 202.925 27.567 203.711 28.6905C204.047 29.1564 204.492 29.534 205.006 29.791C205.52 30.0481 206.089 30.177 206.663 30.1669C207.239 30.1815 207.809 30.0545 208.324 29.797C208.839 29.5396 209.282 29.1596 209.616 28.6905C210.422 27.4766 210.81 26.0334 210.723 24.579C210.787 23.2092 210.389 21.8576 209.594 20.7406C209.257 20.2752 208.812 19.898 208.298 19.641C207.784 19.384 207.216 19.2547 206.641 19.2643C206.066 19.2522 205.497 19.3803 204.982 19.6376C204.468 19.8948 204.024 20.2733 203.688 20.7406C202.888 21.9531 202.506 23.3948 202.603 24.8447V24.8447Z" fill="#0F2535"/>
<path d="M219.618 28.2772L222.962 17.5001H225.597L219.817 34.1013C218.917 36.4929 217.499 37.6887 215.551 37.6887L215.086 37.6444L214.163 37.4746V35.4816L214.827 35.5333C215.516 35.5637 216.198 35.3779 216.776 35.0018C217.338 34.5143 217.739 33.8685 217.927 33.149L218.474 31.6727L213.307 17.4558H215.986L219.618 28.2772Z" fill="#0F2535"/>
</svg>
